<svg aria-hidden="true" style="position:absolute;width:0;height:0;overflow:hidden" xmlns="http://www.w3.org/2000/svg"><defs>
<symbol id="icon-facebook" viewBox="0 0 32 32"><path d="M21.328 5.312h2.923V.224A36.483 36.483 0 0 0 20.143 0h-.156.008c-4.213 0-7.099 2.65-7.099 7.52V12H8.25v5.688h4.646V32h5.699V17.69h4.459l.707-5.688h-5.168V8.08c0-1.643.443-2.768 2.734-2.768z"/></symbol>
<symbol id="icon-google" viewBox="0 0 32 32"><path d="M16.637 30.72C8.52 30.72 1.914 24.118 1.914 16S8.519 1.28 16.637 1.28c3.677 0 7.198 1.362 9.915 3.838l.495.452-4.855 4.855-.45-.385a7.859 7.859 0 0 0-5.105-1.893c-4.33 0-7.855 3.523-7.855 7.852s3.525 7.852 7.855 7.852c3.122 0 5.59-1.595 6.753-4.313h-7.393V12.91l14.432.02.108.508c.753 3.573.15 8.828-2.9 12.588-2.525 3.113-6.225 4.692-11 4.692z"/></symbol>
<symbol id="icon-twitter" viewBox="0 0 32 32"><path d="M32 6.078c-1.1.493-2.376.857-3.713 1.028l-.068.007a6.556 6.556 0 0 0 2.873-3.579l.013-.046a12.88 12.88 0 0 1-4.076 1.573l-.084.014A6.558 6.558 0 0 0 15.6 9.557v.004c0 .52.043 1.021.152 1.496-5.454-.266-10.28-2.88-13.522-6.861a6.524 6.524 0 0 0-.902 3.313v.001a6.57 6.57 0 0 0 2.914 5.451 6.453 6.453 0 0 1-2.994-.823l.033.017v.072a6.592 6.592 0 0 0 5.213 6.44l.043.008a6.403 6.403 0 0 1-1.662.215h-.061.003c-.419 0-.843-.024-1.242-.112.85 2.598 3.261 4.509 6.13 4.57a13.093 13.093 0 0 1-8.122 2.8H1.57h.001-.062c-.531 0-1.055-.034-1.569-.099l.061.006c2.826 1.846 6.287 2.944 10.004 2.944h.063-.003c12.072 0 18.672-10 18.672-18.669 0-.288-.01-.57-.024-.848a13.203 13.203 0 0 0 3.258-3.355l.03-.047z"/></symbol></defs></svg>