<!-- Generated by IcoMoon.io -->
<svg version="1.1" xmlns="http://www.w3.org/2000/svg" width="4608" height="1024" viewBox="0 0 4608 1024">
<title></title>
<g id="icomoon-ignore">
</g>
<path fill="#171819" d="M240.845 585.916l-44.311 83.405v280.206h-143.36v-912.291h143.36v397.498l187.671-397.498h143.36l-199.401 406.621 199.401 505.671h-147.27l-139.45-363.611zM729.941 739.698c0 33.018 6.736 56.257 20.201 69.729 13.466 13.466 31.494 20.201 54.084 20.201s40.619-6.736 54.084-20.201c13.471-13.471 20.201-36.71 20.201-69.729v-492.636c0-33.017-6.73-56.258-20.201-69.725-13.466-13.467-31.494-20.201-54.084-20.201s-40.619 6.733-54.084 20.201c-13.466 13.467-20.201 36.709-20.201 69.725v492.636zM586.587 256.185c0-73.853 18.682-130.544 56.041-170.077s91.227-59.299 161.604-59.299c70.377 0 124.245 19.766 161.61 59.299 37.359 39.533 56.041 96.224 56.041 170.077v474.394c0 73.847-18.682 130.543-56.041 170.075-37.365 39.532-91.233 59.301-161.61 59.301s-124.245-19.769-161.604-59.301c-37.359-39.532-56.041-96.228-56.041-170.075v-474.394zM1256.829 288.767v660.76h-129.024v-912.291h179.854l147.268 546.069v-546.069h127.721v912.291h-147.268l-178.551-660.76zM1682.085 256.185c0-73.853 17.596-130.544 52.782-170.077 35.191-39.533 87.973-59.299 158.35-59.299s123.159 19.766 158.35 59.299c35.186 39.533 52.782 96.224 52.782 170.077v28.672h-135.543v-37.795c0-33.017-6.298-56.258-18.898-69.725-12.595-13.467-30.191-20.201-52.782-20.201s-40.181 6.733-52.782 20.201c-12.595 13.467-18.898 36.709-18.898 69.725 0 31.279 6.952 58.864 20.855 82.758 13.898 23.893 31.278 46.483 52.127 67.77 20.855 21.287 43.23 42.573 67.123 63.86s46.262 44.529 67.118 69.725c20.85 25.197 38.229 53.87 52.127 86.018 13.904 32.148 20.855 69.939 20.855 113.385 0 73.847-18.028 130.543-54.084 170.075-36.062 39.532-89.276 59.301-159.653 59.301s-123.597-19.769-159.653-59.301c-36.056-39.532-54.084-96.228-54.084-170.075v-56.041h135.538v65.161c0 33.018 6.736 56.041 20.201 69.074 13.471 13.033 31.499 19.547 54.090 19.547s40.619-6.514 54.084-19.547c13.466-13.033 20.201-36.056 20.201-69.074 0-31.278-6.952-58.863-20.855-82.756-13.898-23.893-31.278-46.484-52.127-67.772-20.855-21.286-43.224-42.572-67.118-63.859s-46.268-44.529-67.123-69.725c-20.85-25.197-38.229-53.868-52.127-86.016-13.904-32.147-20.855-69.942-20.855-113.385zM2160.742 37.235h443.113v130.327h-149.874v781.964h-143.36v-781.964h-149.879v-130.327zM2980.887 949.527c-1.741-6.081-3.476-11.73-5.211-16.942-1.741-5.217-3.26-11.73-4.562-19.553-1.303-7.817-2.173-17.812-2.606-29.975-0.438-12.163-0.654-27.369-0.654-45.614v-143.36c0-42.576-7.384-72.55-22.158-89.924-14.768-17.38-38.662-26.066-71.68-26.066h-49.522v371.433h-143.36v-912.291h216.343c74.724 0 128.808 17.377 162.258 52.131s50.176 87.319 50.176 157.696v71.68c0 93.836-31.278 155.524-93.838 185.065 36.494 14.771 61.474 38.881 74.94 72.33 13.466 33.451 20.201 74.069 20.201 121.856v140.754c0 22.591 0.87 42.359 2.606 59.301 1.741 16.942 6.081 34.099 13.033 51.479h-145.966zM2824.488 167.563v280.203h56.041c26.931 0 48.003-6.951 63.209-20.852 15.201-13.902 22.807-39.098 22.807-75.59v-89.926c0-33.017-5.865-56.909-17.596-71.68s-30.191-22.155-55.387-22.155h-69.074zM3356.598 37.235v703.765c0 33.018 6.736 56.041 20.201 69.074s31.494 19.553 54.084 19.553c22.591 0 40.619-6.519 54.084-19.553 13.471-13.033 20.201-36.056 20.201-69.074v-703.765h135.543v694.646c0 73.853-18.028 130.543-54.084 170.075-36.062 39.532-89.276 59.301-159.653 59.301s-123.597-19.769-159.653-59.301c-36.056-39.532-54.084-96.222-54.084-170.075v-694.646h143.36zM4144.89 37.235h443.113v130.327h-149.874v781.964h-143.36v-781.964h-149.879v-130.327z"></path>
<path fill="#00a4e5" d="M3708.814 511.34l372.361-465.455v930.908l-372.361-465.454z"></path>
</svg>
